# xmcd CD database file
#
# Track frame offsets:
#	150
#	9905
#	24247
#	36920
#	59987
#	70410
#	87804
#	103390
#	116272
#	131165
#
# Disc length: 1967 seconds
#
# Revision: 0
# Processed by: cddbd v1.5.1PL0 Copyright (c) Steve Scherf et al.
# Submitted via: CDex 1.50
#
DISCID=8707ad0a
DTITLE=Ferlin Huskey - Truck Drivin' Son Of A Gun
DYEAR=1993
DGENRE=Country
TTITLE0=Truck Drivin' Son Of A Gun
TTITLE1=Hello, I'm A Truck
TTITLE2=Don't Fall Asleep At The Wheel
TTITLE3=Teddy Bear
TTITLE4=Six Days On The Road
TTITLE5=Convoy
TTITLE6=Phantom 309
TTITLE7=Drunkin' Driver
TTITLE8=Truck Driver's Blues
TTITLE9=Giddy-Up-Go
EXTD=YEAR: 1993
EXTT0=
EXTT1=
EXTT2=
EXTT3=
EXTT4=
EXTT5=
EXTT6=
EXTT7=
EXTT8=
EXTT9=
PLAYORDER=
